<svg xmlns="http://www.w3.org/2000/svg" width="295" height="189" viewBox="0 0 295 189">
  <defs>
    <style>
      .cls-1 {
        fill: #fff;
        fill-rule: evenodd;
        opacity: 0.4;
      }
    </style>
  </defs>
  <path id="dots_white.svg" class="cls-1" d="M260.781-41a2.68,2.68,0,0,1,2.688,2.672,2.68,2.68,0,0,1-2.688,2.672,2.679,2.679,0,0,1-2.687-2.672A2.679,2.679,0,0,1,260.781-41Zm32.11,0a2.672,2.672,0,0,1,2.671,2.672,2.672,2.672,0,0,1-2.671,2.672,2.672,2.672,0,0,1-2.672-2.672A2.672,2.672,0,0,1,292.891-41ZM325-41a2.679,2.679,0,0,1,2.687,2.672A2.679,2.679,0,0,1,325-35.656a2.68,2.68,0,0,1-2.688-2.672A2.68,2.68,0,0,1,325-41Zm32.109,0a2.672,2.672,0,0,1,2.672,2.672,2.672,2.672,0,0,1-2.672,2.672,2.672,2.672,0,0,1-2.672-2.672A2.672,2.672,0,0,1,357.109-41Zm32.782,0a2.672,2.672,0,0,1,2.671,2.672,2.672,2.672,0,0,1-2.671,2.672,2.672,2.672,0,0,1-2.672-2.672A2.672,2.672,0,0,1,389.891-41ZM422-41a2.68,2.68,0,0,1,2.688,2.672A2.68,2.68,0,0,1,422-35.656a2.68,2.68,0,0,1-2.688-2.672A2.68,2.68,0,0,1,422-41Zm32.109,0a2.672,2.672,0,0,1,2.672,2.672,2.672,2.672,0,0,1-2.672,2.672,2.672,2.672,0,0,1-2.672-2.672A2.672,2.672,0,0,1,454.109-41Zm32.11,0a2.679,2.679,0,0,1,2.687,2.672,2.679,2.679,0,0,1-2.687,2.672,2.68,2.68,0,0,1-2.688-2.672A2.68,2.68,0,0,1,486.219-41Zm32.109,0A2.672,2.672,0,0,1,521-38.328a2.672,2.672,0,0,1-2.672,2.672,2.672,2.672,0,0,1-2.672-2.672A2.672,2.672,0,0,1,518.328-41ZM228.672-41a2.672,2.672,0,0,1,2.672,2.672,2.672,2.672,0,0,1-2.672,2.672A2.672,2.672,0,0,1,226-38.328,2.672,2.672,0,0,1,228.672-41ZM260.781-8.906a2.68,2.68,0,0,1,2.688,2.672,2.68,2.68,0,0,1-2.688,2.672,2.679,2.679,0,0,1-2.687-2.672A2.679,2.679,0,0,1,260.781-8.906Zm32.11,0a2.672,2.672,0,0,1,2.671,2.672,2.672,2.672,0,0,1-2.671,2.672,2.672,2.672,0,0,1-2.672-2.672A2.672,2.672,0,0,1,292.891-8.906Zm32.109,0a2.679,2.679,0,0,1,2.687,2.672A2.679,2.679,0,0,1,325-3.562a2.68,2.68,0,0,1-2.688-2.672A2.68,2.68,0,0,1,325-8.906Zm32.109,0a2.672,2.672,0,0,1,2.672,2.672,2.672,2.672,0,0,1-2.672,2.672,2.672,2.672,0,0,1-2.672-2.672A2.672,2.672,0,0,1,357.109-8.906Zm32.782,0a2.672,2.672,0,0,1,2.671,2.672,2.672,2.672,0,0,1-2.671,2.672,2.672,2.672,0,0,1-2.672-2.672A2.672,2.672,0,0,1,389.891-8.906Zm32.109,0a2.68,2.68,0,0,1,2.688,2.672A2.68,2.68,0,0,1,422-3.562a2.68,2.68,0,0,1-2.688-2.672A2.68,2.68,0,0,1,422-8.906Zm32.109,0a2.672,2.672,0,0,1,2.672,2.672,2.672,2.672,0,0,1-2.672,2.672,2.672,2.672,0,0,1-2.672-2.672A2.672,2.672,0,0,1,454.109-8.906Zm32.11,0a2.679,2.679,0,0,1,2.687,2.672,2.679,2.679,0,0,1-2.687,2.672,2.68,2.68,0,0,1-2.688-2.672A2.68,2.68,0,0,1,486.219-8.906Zm32.109,0A2.672,2.672,0,0,1,521-6.234a2.672,2.672,0,0,1-2.672,2.672,2.672,2.672,0,0,1-2.672-2.672A2.672,2.672,0,0,1,518.328-8.906Zm-289.656,0a2.672,2.672,0,0,1,2.672,2.672,2.672,2.672,0,0,1-2.672,2.672A2.672,2.672,0,0,1,226-6.234,2.672,2.672,0,0,1,228.672-8.906Zm32.109,32.093a2.672,2.672,0,1,1-2.687,2.672A2.68,2.68,0,0,1,260.781,23.187Zm32.11,0a2.672,2.672,0,1,1-2.672,2.672A2.672,2.672,0,0,1,292.891,23.187Zm32.109,0a2.672,2.672,0,1,1-2.688,2.672A2.679,2.679,0,0,1,325,23.187Zm32.109,0a2.672,2.672,0,1,1-2.672,2.672A2.672,2.672,0,0,1,357.109,23.187Zm32.782,0a2.672,2.672,0,1,1-2.672,2.672A2.672,2.672,0,0,1,389.891,23.187Zm32.109,0a2.672,2.672,0,1,1-2.688,2.672A2.68,2.68,0,0,1,422,23.187Zm32.109,0a2.672,2.672,0,1,1-2.672,2.672A2.672,2.672,0,0,1,454.109,23.187Zm32.11,0a2.672,2.672,0,1,1-2.688,2.672A2.679,2.679,0,0,1,486.219,23.187Zm32.109,0a2.672,2.672,0,1,1-2.672,2.672A2.672,2.672,0,0,1,518.328,23.187Zm-289.656,0A2.672,2.672,0,1,1,226,25.859,2.672,2.672,0,0,1,228.672,23.187Zm32.109,32.094a2.672,2.672,0,1,1-2.687,2.672A2.68,2.68,0,0,1,260.781,55.281Zm32.11,0a2.672,2.672,0,1,1-2.672,2.672A2.672,2.672,0,0,1,292.891,55.281Zm32.109,0a2.672,2.672,0,1,1-2.688,2.672A2.679,2.679,0,0,1,325,55.281Zm32.109,0a2.672,2.672,0,1,1-2.672,2.672A2.672,2.672,0,0,1,357.109,55.281Zm32.782,0a2.672,2.672,0,1,1-2.672,2.672A2.672,2.672,0,0,1,389.891,55.281Zm32.109,0a2.672,2.672,0,1,1-2.688,2.672A2.68,2.68,0,0,1,422,55.281Zm32.109,0a2.672,2.672,0,1,1-2.672,2.672A2.672,2.672,0,0,1,454.109,55.281Zm32.11,0a2.672,2.672,0,1,1-2.688,2.672A2.679,2.679,0,0,1,486.219,55.281Zm32.109,0a2.672,2.672,0,1,1-2.672,2.672A2.672,2.672,0,0,1,518.328,55.281Zm-289.656,0A2.672,2.672,0,1,1,226,57.953,2.672,2.672,0,0,1,228.672,55.281Zm32.109,32.094a2.672,2.672,0,1,1-2.687,2.672A2.68,2.68,0,0,1,260.781,87.375Zm32.11,0a2.672,2.672,0,1,1-2.672,2.672A2.672,2.672,0,0,1,292.891,87.375Zm32.109,0a2.672,2.672,0,1,1-2.688,2.672A2.679,2.679,0,0,1,325,87.375Zm32.109,0a2.672,2.672,0,1,1-2.672,2.672A2.672,2.672,0,0,1,357.109,87.375Zm32.782,0a2.672,2.672,0,1,1-2.672,2.672A2.672,2.672,0,0,1,389.891,87.375Zm32.109,0a2.672,2.672,0,1,1-2.688,2.672A2.68,2.68,0,0,1,422,87.375Zm32.109,0a2.672,2.672,0,1,1-2.672,2.672A2.672,2.672,0,0,1,454.109,87.375Zm32.11,0a2.672,2.672,0,1,1-2.688,2.672A2.679,2.679,0,0,1,486.219,87.375Zm32.109,0a2.672,2.672,0,1,1-2.672,2.672A2.672,2.672,0,0,1,518.328,87.375Zm-289.656,0A2.672,2.672,0,1,1,226,90.047,2.672,2.672,0,0,1,228.672,87.375Zm32.109,32.094a2.672,2.672,0,1,1-2.687,2.672A2.68,2.68,0,0,1,260.781,119.468Zm32.11,0a2.672,2.672,0,1,1-2.672,2.672A2.671,2.671,0,0,1,292.891,119.468Zm32.109,0a2.672,2.672,0,1,1-2.688,2.672A2.679,2.679,0,0,1,325,119.468Zm32.109,0a2.672,2.672,0,1,1-2.672,2.672A2.672,2.672,0,0,1,357.109,119.468Zm32.782,0a2.672,2.672,0,1,1-2.672,2.672A2.671,2.671,0,0,1,389.891,119.468Zm32.109,0a2.672,2.672,0,1,1-2.688,2.672A2.68,2.68,0,0,1,422,119.468Zm32.109,0a2.672,2.672,0,1,1-2.672,2.672A2.672,2.672,0,0,1,454.109,119.468Zm32.11,0a2.672,2.672,0,1,1-2.688,2.672A2.679,2.679,0,0,1,486.219,119.468Zm32.109,0a2.672,2.672,0,1,1-2.672,2.672A2.672,2.672,0,0,1,518.328,119.468Zm-289.656,0A2.672,2.672,0,1,1,226,122.14,2.672,2.672,0,0,1,228.672,119.468Zm32.109,32.094a2.672,2.672,0,1,1-2.687,2.672A2.68,2.68,0,0,1,260.781,151.562Zm32.11,0a2.672,2.672,0,1,1-2.672,2.672A2.672,2.672,0,0,1,292.891,151.562Zm32.109,0a2.672,2.672,0,1,1-2.688,2.672A2.68,2.68,0,0,1,325,151.562Zm32.109,0a2.672,2.672,0,1,1-2.672,2.672A2.672,2.672,0,0,1,357.109,151.562Zm32.782,0a2.672,2.672,0,1,1-2.672,2.672A2.672,2.672,0,0,1,389.891,151.562Zm32.109,0a2.672,2.672,0,1,1-2.688,2.672A2.681,2.681,0,0,1,422,151.562Zm32.109,0a2.672,2.672,0,1,1-2.672,2.672A2.672,2.672,0,0,1,454.109,151.562Zm32.11,0a2.672,2.672,0,1,1-2.688,2.672A2.68,2.68,0,0,1,486.219,151.562Zm32.109,0a2.672,2.672,0,1,1-2.672,2.672A2.672,2.672,0,0,1,518.328,151.562Zm-289.656,0A2.672,2.672,0,1,1,226,154.234,2.673,2.673,0,0,1,228.672,151.562Zm32.109,32.094a2.672,2.672,0,1,1-2.687,2.672A2.68,2.68,0,0,1,260.781,183.656Zm32.11,0a2.672,2.672,0,1,1-2.672,2.672A2.671,2.671,0,0,1,292.891,183.656Zm32.109,0a2.672,2.672,0,1,1-2.688,2.672A2.679,2.679,0,0,1,325,183.656Zm32.109,0a2.672,2.672,0,1,1-2.672,2.672A2.672,2.672,0,0,1,357.109,183.656Zm32.782,0a2.672,2.672,0,1,1-2.672,2.672A2.671,2.671,0,0,1,389.891,183.656Zm32.109,0a2.672,2.672,0,1,1-2.688,2.672A2.68,2.68,0,0,1,422,183.656Zm32.109,0a2.672,2.672,0,1,1-2.672,2.672A2.672,2.672,0,0,1,454.109,183.656Zm32.11,0a2.672,2.672,0,1,1-2.688,2.672A2.679,2.679,0,0,1,486.219,183.656Zm32.109,0a2.672,2.672,0,1,1-2.672,2.672A2.672,2.672,0,0,1,518.328,183.656Zm-289.656,0A2.672,2.672,0,1,1,226,186.328,2.672,2.672,0,0,1,228.672,183.656Z" transform="translate(-226)"/>
</svg>
