<svg xmlns="http://www.w3.org/2000/svg" width="295" height="230" viewBox="0 0 295 230">
  <defs>
    <style>
      .cls-1 {
        fill-rule: evenodd;
        opacity: 0.1;
      }
    </style>
  </defs>
  <path id="dots_black.svg" class="cls-1" d="M256.781,1414a2.67,2.67,0,1,1-2.687,2.67A2.682,2.682,0,0,1,256.781,1414Zm32.11,0a2.67,2.67,0,1,1-2.672,2.67A2.674,2.674,0,0,1,288.891,1414ZM321,1414a2.67,2.67,0,1,1-2.688,2.67A2.681,2.681,0,0,1,321,1414Zm32.109,0a2.67,2.67,0,1,1-2.672,2.67A2.674,2.674,0,0,1,353.109,1414Zm32.782,0a2.67,2.67,0,1,1-2.672,2.67A2.674,2.674,0,0,1,385.891,1414ZM418,1414a2.67,2.67,0,1,1-2.687,2.67A2.681,2.681,0,0,1,418,1414Zm32.109,0a2.67,2.67,0,1,1-2.672,2.67A2.674,2.674,0,0,1,450.109,1414Zm32.11,0a2.67,2.67,0,1,1-2.688,2.67A2.681,2.681,0,0,1,482.219,1414Zm32.109,0a2.67,2.67,0,1,1-2.672,2.67A2.674,2.674,0,0,1,514.328,1414Zm-289.656,0a2.67,2.67,0,1,1-2.672,2.67A2.674,2.674,0,0,1,224.672,1414Zm32.109,32.09a2.675,2.675,0,1,1-2.687,2.68A2.684,2.684,0,0,1,256.781,1446.09Zm32.11,0a2.675,2.675,0,1,1-2.672,2.68A2.677,2.677,0,0,1,288.891,1446.09Zm32.109,0a2.675,2.675,0,1,1-2.688,2.68A2.684,2.684,0,0,1,321,1446.09Zm32.109,0a2.675,2.675,0,1,1-2.672,2.68A2.676,2.676,0,0,1,353.109,1446.09Zm32.782,0a2.675,2.675,0,1,1-2.672,2.68A2.676,2.676,0,0,1,385.891,1446.09Zm32.109,0a2.675,2.675,0,1,1-2.687,2.68A2.684,2.684,0,0,1,418,1446.09Zm32.109,0a2.675,2.675,0,1,1-2.672,2.68A2.676,2.676,0,0,1,450.109,1446.09Zm32.11,0a2.675,2.675,0,1,1-2.688,2.68A2.684,2.684,0,0,1,482.219,1446.09Zm32.109,0a2.675,2.675,0,1,1-2.672,2.68A2.676,2.676,0,0,1,514.328,1446.09Zm-289.656,0a2.675,2.675,0,1,1-2.672,2.68A2.677,2.677,0,0,1,224.672,1446.09Zm32.109,32.1a2.67,2.67,0,1,1-2.687,2.67A2.676,2.676,0,0,1,256.781,1478.19Zm32.11,0a2.67,2.67,0,1,1-2.672,2.67A2.668,2.668,0,0,1,288.891,1478.19Zm32.109,0a2.67,2.67,0,1,1-2.688,2.67A2.675,2.675,0,0,1,321,1478.19Zm32.109,0a2.67,2.67,0,1,1-2.672,2.67A2.667,2.667,0,0,1,353.109,1478.19Zm32.782,0a2.67,2.67,0,1,1-2.672,2.67A2.667,2.667,0,0,1,385.891,1478.19Zm32.109,0a2.67,2.67,0,1,1-2.687,2.67A2.675,2.675,0,0,1,418,1478.19Zm32.109,0a2.67,2.67,0,1,1-2.672,2.67A2.667,2.667,0,0,1,450.109,1478.19Zm32.11,0a2.67,2.67,0,1,1-2.688,2.67A2.675,2.675,0,0,1,482.219,1478.19Zm32.109,0a2.67,2.67,0,1,1-2.672,2.67A2.667,2.667,0,0,1,514.328,1478.19Zm-289.656,0a2.67,2.67,0,1,1-2.672,2.67A2.668,2.668,0,0,1,224.672,1478.19Zm32.109,32.09a2.67,2.67,0,1,1-2.687,2.67A2.682,2.682,0,0,1,256.781,1510.28Zm32.11,0a2.67,2.67,0,1,1-2.672,2.67A2.674,2.674,0,0,1,288.891,1510.28Zm32.109,0a2.67,2.67,0,1,1-2.688,2.67A2.681,2.681,0,0,1,321,1510.28Zm32.109,0a2.67,2.67,0,1,1-2.672,2.67A2.674,2.674,0,0,1,353.109,1510.28Zm32.782,0a2.67,2.67,0,1,1-2.672,2.67A2.674,2.674,0,0,1,385.891,1510.28Zm32.109,0a2.67,2.67,0,1,1-2.687,2.67A2.681,2.681,0,0,1,418,1510.28Zm32.109,0a2.67,2.67,0,1,1-2.672,2.67A2.674,2.674,0,0,1,450.109,1510.28Zm32.11,0a2.67,2.67,0,1,1-2.688,2.67A2.681,2.681,0,0,1,482.219,1510.28Zm32.109,0a2.67,2.67,0,1,1-2.672,2.67A2.674,2.674,0,0,1,514.328,1510.28Zm-289.656,0a2.67,2.67,0,1,1-2.672,2.67A2.674,2.674,0,0,1,224.672,1510.28Zm32.109,32.09a2.675,2.675,0,1,1-2.687,2.68A2.684,2.684,0,0,1,256.781,1542.37Zm32.11,0a2.675,2.675,0,1,1-2.672,2.68A2.677,2.677,0,0,1,288.891,1542.37Zm32.109,0a2.675,2.675,0,1,1-2.688,2.68A2.684,2.684,0,0,1,321,1542.37Zm32.109,0a2.675,2.675,0,1,1-2.672,2.68A2.676,2.676,0,0,1,353.109,1542.37Zm32.782,0a2.675,2.675,0,1,1-2.672,2.68A2.676,2.676,0,0,1,385.891,1542.37Zm32.109,0a2.675,2.675,0,1,1-2.687,2.68A2.684,2.684,0,0,1,418,1542.37Zm32.109,0a2.675,2.675,0,1,1-2.672,2.68A2.676,2.676,0,0,1,450.109,1542.37Zm32.11,0a2.675,2.675,0,1,1-2.688,2.68A2.684,2.684,0,0,1,482.219,1542.37Zm32.109,0a2.675,2.675,0,1,1-2.672,2.68A2.676,2.676,0,0,1,514.328,1542.37Zm-289.656,0a2.675,2.675,0,1,1-2.672,2.68A2.677,2.677,0,0,1,224.672,1542.37Zm32.109,32.1a2.67,2.67,0,1,1-2.687,2.67A2.676,2.676,0,0,1,256.781,1574.47Zm32.11,0a2.67,2.67,0,1,1-2.672,2.67A2.668,2.668,0,0,1,288.891,1574.47Zm32.109,0a2.67,2.67,0,1,1-2.688,2.67A2.675,2.675,0,0,1,321,1574.47Zm32.109,0a2.67,2.67,0,1,1-2.672,2.67A2.667,2.667,0,0,1,353.109,1574.47Zm32.782,0a2.67,2.67,0,1,1-2.672,2.67A2.667,2.667,0,0,1,385.891,1574.47Zm32.109,0a2.67,2.67,0,1,1-2.687,2.67A2.675,2.675,0,0,1,418,1574.47Zm32.109,0a2.67,2.67,0,1,1-2.672,2.67A2.667,2.667,0,0,1,450.109,1574.47Zm32.11,0a2.67,2.67,0,1,1-2.688,2.67A2.675,2.675,0,0,1,482.219,1574.47Zm32.109,0a2.67,2.67,0,1,1-2.672,2.67A2.667,2.667,0,0,1,514.328,1574.47Zm-289.656,0a2.67,2.67,0,1,1-2.672,2.67A2.668,2.668,0,0,1,224.672,1574.47Zm32.109,32.09a2.675,2.675,0,1,1-2.687,2.67A2.682,2.682,0,0,1,256.781,1606.56Zm32.11,0a2.675,2.675,0,1,1-2.672,2.67A2.674,2.674,0,0,1,288.891,1606.56Zm32.109,0a2.675,2.675,0,1,1-2.688,2.67A2.681,2.681,0,0,1,321,1606.56Zm32.109,0a2.675,2.675,0,1,1-2.672,2.67A2.674,2.674,0,0,1,353.109,1606.56Zm32.782,0a2.675,2.675,0,1,1-2.672,2.67A2.674,2.674,0,0,1,385.891,1606.56Zm32.109,0a2.675,2.675,0,1,1-2.687,2.67A2.681,2.681,0,0,1,418,1606.56Zm32.109,0a2.675,2.675,0,1,1-2.672,2.67A2.674,2.674,0,0,1,450.109,1606.56Zm32.11,0a2.675,2.675,0,1,1-2.688,2.67A2.681,2.681,0,0,1,482.219,1606.56Zm32.109,0a2.675,2.675,0,1,1-2.672,2.67A2.674,2.674,0,0,1,514.328,1606.56Zm-289.656,0a2.675,2.675,0,1,1-2.672,2.67A2.674,2.674,0,0,1,224.672,1606.56Zm32.109,32.1a2.67,2.67,0,1,1-2.687,2.67A2.676,2.676,0,0,1,256.781,1638.66Zm32.11,0a2.67,2.67,0,1,1-2.672,2.67A2.668,2.668,0,0,1,288.891,1638.66Zm32.109,0a2.67,2.67,0,1,1-2.688,2.67A2.675,2.675,0,0,1,321,1638.66Zm32.109,0a2.67,2.67,0,1,1-2.672,2.67A2.667,2.667,0,0,1,353.109,1638.66Zm32.782,0a2.67,2.67,0,1,1-2.672,2.67A2.667,2.667,0,0,1,385.891,1638.66Zm32.109,0a2.67,2.67,0,1,1-2.687,2.67A2.675,2.675,0,0,1,418,1638.66Zm32.109,0a2.67,2.67,0,1,1-2.672,2.67A2.667,2.667,0,0,1,450.109,1638.66Zm32.11,0a2.67,2.67,0,1,1-2.688,2.67A2.675,2.675,0,0,1,482.219,1638.66Zm32.109,0a2.67,2.67,0,1,1-2.672,2.67A2.667,2.667,0,0,1,514.328,1638.66Zm-289.656,0a2.67,2.67,0,1,1-2.672,2.67A2.668,2.668,0,0,1,224.672,1638.66Z" transform="translate(-222 -1414)"/>
</svg>
