<svg id="logo" xmlns="http://www.w3.org/2000/svg" width="143.687" height="30.469" viewBox="0 0 143.687 30.469">
  <defs>
    <style>
      .cls-1 {
        fill: #fff;
      }

      .cls-1, .cls-2 {
        fill-rule: evenodd;
      }

      .cls-2, .cls-3 {
        fill: #773ae7;
      }
    </style>
  </defs>
  <path id="ROV" class="cls-1" d="M503.867,110.256l-5.04-8.34a6.521,6.521,0,0,0,3.7-2.22,6.159,6.159,0,0,0,1.275-3.93,6.833,6.833,0,0,0-.87-3.465,6.022,6.022,0,0,0-2.61-2.385,9.458,9.458,0,0,0-4.26-.87h-8.76v21.21h5.13v-8.01h1.17l4.59,8.01h5.67Zm-11.43-16.89h3.18a3.081,3.081,0,0,1,2.235.72,2.645,2.645,0,0,1,.735,1.98,2.6,2.6,0,0,1-.72,2,3.2,3.2,0,0,1-2.25.675h-3.18v-5.37Zm23.429-4.65a10.733,10.733,0,0,0-5.415,1.4,10.271,10.271,0,0,0-3.87,3.87,11.726,11.726,0,0,0,0,11.205,10.241,10.241,0,0,0,3.87,3.885,11.207,11.207,0,0,0,10.83,0,10.241,10.241,0,0,0,3.87-3.885,11.78,11.78,0,0,0,.015-11.205,10.163,10.163,0,0,0-3.855-3.87,10.792,10.792,0,0,0-5.445-1.4h0Zm0,4.77a5.121,5.121,0,0,1,4,1.65,7.35,7.35,0,0,1-.015,8.88,5.667,5.667,0,0,1-8,0,7.4,7.4,0,0,1,0-8.9,5.143,5.143,0,0,1,4-1.635h0Zm11.46-4.44,7.35,21.21h6.63l7.38-21.21H543.2l-5.19,15.96-5.19-15.96h-5.49Z" transform="translate(-416.313 -80)"/>
  <path id="KADI" class="cls-2" d="M434.847,89.046H428.7l-7.26,9.33v-9.33h-5.13v21.21h5.13v-9.51l7.2,9.51h6.21l-8.55-10.83Zm16.019,21.21h5.46l-7.77-21.06h-5.91l-7.77,21.06h5.4l1.32-3.87h7.95Zm-7.95-7.77,2.67-7.8,2.64,7.8h-5.31Zm33.87-2.88a11.166,11.166,0,0,0-1.335-5.52,9.211,9.211,0,0,0-3.825-3.72,12.454,12.454,0,0,0-5.91-1.32h-8.01v21.21h8.01a12.246,12.246,0,0,0,5.895-1.35,9.351,9.351,0,0,0,3.84-3.765,11.25,11.25,0,0,0,1.335-5.535h0Zm-11.52,6.06h-2.43V93.546h2.43a6.483,6.483,0,0,1,4.665,1.59,6.833,6.833,0,0,1,0,8.94,6.483,6.483,0,0,1-4.665,1.59h0Zm13.83-16.62v21.21h5.13V89.046H479.1Z" transform="translate(-416.313 -80)"/>
  <rect class="cls-3" x="134.687" width="9" height="9"/>
</svg>
